<svg aria-hidden="true" style="position: absolute; width: 0; height: 0; overflow: hidden;" version="1.1" xmlns="http://www.w3.org/2000/svg" xmlns:xlink="http://www.w3.org/1999/xlink">
    <defs>
        <symbol id="rewiews-svg" viewBox="0 0 256 32">
            <path d="M144.014 16.025c0 8.837-7.164 16.002-16.002 16.002s-16.002-7.164-16.002-16.002c0-8.837 7.164-16.002 16.002-16.002s16.002 7.164 16.002 16.002z"></path>
            <path d="M32.003 16.025c0 8.837-7.164 16.002-16.002 16.002s-16.002-7.164-16.002-16.002c0-8.837 7.164-16.002 16.002-16.002s16.002 7.164 16.002 16.002z"></path>
            <path d="M256.025 16.025c0 8.837-7.164 16.002-16.002 16.002s-16.002-7.164-16.002-16.002c0-8.837 7.164-16.002 16.002-16.002s16.002 7.164 16.002 16.002z"></path>
        </symbol>
    </defs>
</svg>