<svg aria-hidden="true" style="position: absolute; width: 0; height: 0; overflow: hidden;" version="1.1" xmlns="http://www.w3.org/2000/svg" xmlns:xlink="http://www.w3.org/1999/xlink">
    <defs>
        <symbol id="icon-close" viewBox="0 0 32 32">
            <path stroke-linejoin="miter" stroke-linecap="butt" stroke-miterlimit="4" stroke-width="2" d="M2.52 2l26.96 28M2 29.48l28-26.96"></path>
        </symbol>
        <symbol id="icon-arrow" viewBox="0 0 19 32">
            <path stroke-linejoin="round" stroke-linecap="round" stroke-miterlimit="4" stroke-width="6.4" d="M3.2 3.2l12.8 12.8-12.8 12.8"></path>
        </symbol>
        <symbol id="icon-burger" viewBox="0 0 46 32">
            <path stroke-linejoin="miter" stroke-linecap="butt" stroke-miterlimit="4" stroke-width="2.2857" d="M0 2.286h45.714M0 16h45.714M0 29.714h45.714"></path>
        </symbol>
        <symbol id="icon-person" viewBox="0 0 32 32">
            <path d="M16 16c2.947 0 5.333-2.387 5.333-5.333s-2.387-5.333-5.333-5.333c-2.947 0-5.333 2.387-5.333 5.333s2.387 5.333 5.333 5.333zM16 18.667c-3.56 0-10.667 1.787-10.667 5.333v1.333c0 0.733 0.6 1.333 1.333 1.333h18.667c0.733 0 1.333-0.6 1.333-1.333v-1.333c0-3.547-7.107-5.333-10.667-5.333z"></path>
        </symbol>
        <symbol id="icon-phone" viewBox="0 0 32 32">
            <path d="M24.882 19.773l-3.268-0.373c-0.785-0.090-1.557 0.18-2.11 0.733l-2.367 2.367c-3.641-1.853-6.626-4.825-8.478-8.478l2.38-2.38c0.553-0.553 0.823-1.325 0.733-2.11l-0.373-3.242c-0.154-1.299-1.248-2.277-2.56-2.277h-2.226c-1.454 0-2.663 1.209-2.573 2.663 0.682 10.987 9.469 19.761 20.443 20.443 1.454 0.090 2.663-1.119 2.663-2.573v-2.226c0.013-1.3-0.965-2.393-2.264-2.547z"></path>
        </symbol>
        <symbol id="icon-email" viewBox="0 0 32 32">
            <path d="M26.667 5.333h-21.333c-1.467 0-2.653 1.2-2.653 2.667l-0.013 16c0 1.467 1.2 2.667 2.667 2.667h21.333c1.467 0 2.667-1.2 2.667-2.667v-16c0-1.467-1.2-2.667-2.667-2.667zM26.133 11l-9.427 5.893c-0.427 0.267-0.987 0.267-1.413 0l-9.427-5.893c-0.333-0.213-0.533-0.573-0.533-0.96 0-0.893 0.973-1.427 1.733-0.96l8.933 5.587 8.933-5.587c0.76-0.467 1.733 0.067 1.733 0.96 0 0.387-0.2 0.747-0.533 0.96z"></path>
        </symbol>
        <symbol id="icon-send" viewBox="0 0 32 32">
            <path d="M32 0l-32 18 10.227 3.788 15.773-14.788-11.998 16.186 0.010 0.004-0.012-0.004v8.814l5.735-6.691 7.265 2.691 5-28z"></path>
        </symbol>
        <symbol id="icon-check" viewBox="0 0 42 32">
            <path  d="M6.263 15.205l-0.22-0.21-3.307 3.132 11.651 11.114 24.477-23.351-3.285-3.134-21.192 20.197-8.124-7.75z"></path>
        </symbol>
        <symbol id="icon-menu" viewBox="0 0 48 32">
            <path d="M0 5.333v-5.333h48v5.333h-48zM0 18.667h48v-5.333h-48v5.333zM0 32h48v-5.333h-48v5.333z"></path>
        </symbol>
        <symbol id="icon-city" viewBox="0 0 32 32">
            <path d="M27.923 23.791v-10.159h-4.52v10.159h-3.011v-18.964h-7.537v18.964h-2.009v-12.193h-6.53v12.19h-4.315v3.388h32.003v-3.388l-4.080 0.003zM17.23 6.526h2.382v1.648h-2.382v-1.648zM17.23 9.123h2.382v1.646h-2.382v-1.646zM13.635 6.526h2.379v1.648h-2.379v-1.648zM13.635 9.123h2.379v1.646h-2.379v-1.646zM8.428 13.005h1.459v1.946h-1.459v-1.946zM5.275 13.005h1.459v1.946h-1.459v-1.946z"></path>
        </symbol>
        <symbol id="icon-location" viewBox="0 0 32 32">
            <path d="M29.41 19.73l-7.46-4.84c0.98-1.6 1.49-3.43 1.5-5.45 0.010-4.090-3.31-7.43-7.4-7.43-4.1-0.010-7.43 3.3-7.45 7.4-0.010 2.020 0.49 3.85 1.47 5.46l-7.48 4.8c-0.31 0.2-0.5 0.55-0.5 0.93-0.010 0.38 0.18 0.72 0.5 0.93l12.78 8.3c0.18 0.12 0.39 0.18 0.6 0.18s0.42-0.060 0.6-0.18l12.83-8.24c0.32-0.2 0.51-0.55 0.51-0.93s-0.18-0.73-0.5-0.93zM19.36 9.39c-0.012 1.836-1.503 3.319-3.34 3.32h-0c-1.83 0-3.32-1.5-3.32-3.33 0.003-1.837 1.493-3.325 3.33-3.325 1.839 0 3.33 1.491 3.33 3.33 0 0.002 0 0.004 0 0.005v-0zM15.98 27.58l-10.75-6.99 6.17-3.96 0.46 0.46c0.060 0.060 0.12 0.11 0.18 0.17 0.070 0.070 0.14 0.13 0.21 0.19l0.18 0.15 0.21 0.18c0.060 0.040 0.12 0.090 0.17 0.13l0.22 0.16c0.050 0.040 0.1 0.070 0.16 0.12 0.070 0.050 0.15 0.1 0.23 0.15 0.040 0.030 0.090 0.060 0.13 0.090 0.12 0.070 0.24 0.15 0.35 0.21 0.040 0.030 0.1 0.060 0.14 0.090 0.070 0.040 0.13 0.070 0.19 0.1 0.050 0.030 0.1 0.060 0.15 0.080l0.15 0.090c0.050 0.020 0.1 0.040 0.14 0.070 0.050 0.020 0.1 0.040 0.14 0.070 0.040 0.020 0.090 0.040 0.13 0.060l0.12 0.060c0.040 0.010 0.080 0.030 0.11 0.050 0.038 0.008 0.071 0.022 0.101 0.041l-0.001-0.001c0.040 0.010 0.070 0.030 0.1 0.040s0.050 0.010 0.070 0.030c0.030 0.010 0.050 0.010 0.070 0.020l0.060 0.030c0.010 0 0.020 0.010 0.040 0.010 0.020 0.010 0.040 0.010 0.040 0.020 0.106 0.038 0.228 0.060 0.355 0.060s0.249-0.022 0.363-0.062l-0.008 0.002c0.010 0 0.020-0.010 0.040-0.010 0.010-0.010 0.020-0.010 0.040-0.010 0.020-0.010 0.040-0.010 0.060-0.020s0.040-0.020 0.070-0.030c0.020-0.010 0.040-0.010 0.070-0.030 0.030-0.010 0.060-0.020 0.090-0.040 0.030-0.010 0.070-0.030 0.1-0.040s0.070-0.030 0.1-0.040c0.040-0.020 0.080-0.040 0.13-0.060 0.040-0.020 0.080-0.040 0.13-0.060 0.040-0.020 0.090-0.040 0.13-0.070 0.050-0.020 0.1-0.050 0.15-0.070 0.040-0.020 0.1-0.050 0.15-0.080s0.1-0.050 0.16-0.080c0.050-0.030 0.1-0.070 0.16-0.1s0.11-0.070 0.17-0.1c0.070-0.050 0.15-0.1 0.24-0.15 0.1-0.060 0.19-0.13 0.29-0.19 0.060-0.040 0.12-0.070 0.18-0.11 0.070-0.050 0.13-0.1 0.2-0.15 0.060-0.040 0.12-0.080 0.18-0.13 0.070-0.050 0.13-0.11 0.21-0.16l0.18-0.15c0.070-0.050 0.14-0.11 0.21-0.17 0.060-0.050 0.13-0.11 0.18-0.16 0.070-0.060 0.13-0.13 0.21-0.19l0.38-0.38c0.010-0.020 0.040-0.040 0.060-0.070l6.16 4-10.81 6.93z"></path>
        </symbol>
        <symbol id="icon-logo" viewBox="0 0 32 32">
            <path  d="M21.934 9.027c-0.169-0.238-0.351-0.46-0.548-0.662-1.246-1.276-3.085-1.896-5.62-1.896-2.494 0-4.303 0.6-5.531 1.834-0.215 0.217-0.41 0.459-0.592 0.716 2.245 1.62 4.452 2.441 6.559 2.441 2.827-0 4.868-1.606 5.733-2.434zM15.765 29.202c-1.356 0-2.507-0.049-3.495-0.154l-0 2.513c1.201 0.288 2.455 0.441 3.744 0.441 1.112 0 2.197-0.113 3.245-0.329v-2.599c-0.993 0.087-2.147 0.128-3.494 0.128z"></path>
            <path  d="M32.015 16.001c0-8.836-7.164-16-16-16s-16 7.164-16 16c0 6.841 4.294 12.68 10.334 14.968l0.002-2.248c-1.206-0.304-2.066-0.763-2.711-1.413-1.447-1.458-1.519-3.556-1.5-6.663-1.2-0.305-2.086-1.269-2.086-2.423v-0.619c0-1.154 0.888-2.12 2.091-2.423 0.116-3.837 0.986-6.479 2.729-8.23 1.585-1.593 3.903-2.4 6.892-2.4 3.037 0 5.39 0.833 6.994 2.475 1.707 1.747 2.572 4.403 2.648 8.074 1.441 0.138 2.57 1.202 2.57 2.505v0.619c0 1.323-1.164 2.4-2.637 2.511-0.002 0.155-0.003 0.312-0.005 0.461-0.044 4.624-0.292 6.799-4.155 7.61v2.346c6.302-2.148 10.835-8.119 10.835-15.148z"></path>
            <path  d="M23.414 21.175c0.001-0.132 0.003-0.271 0.004-0.408l-2.082 0.017 0.010 2.677-0.070 0.174c-0.439 1.094-1.444 1.785-2.623 1.806-0.018 0-0.036 0.001-0.053 0.001-1.156 0-2.16-0.653-2.63-1.715l-0.082-0.186 0.003-2.755-7.833-0.028c-0.013 2.564 0.048 4.296 0.943 5.197 0.922 0.929 2.945 1.326 6.762 1.326 7.591 0 7.596-0.578 7.649-6.106z"></path>
            <path  d="M17.809 23.103c0.258 0.394 0.681 0.421 0.812 0.419 0.135-0.002 0.561-0.044 0.804-0.459l-0.016-4.183 5.687-0.046c0.549 0 0.96-0.323 0.96-0.612v-0.619c0-0.289-0.411-0.612-0.96-0.612h-18.164c-0.549 0-0.96 0.323-0.96 0.612v0.619c0 0.289 0.411 0.612 0.96 0.612l10.881 0.039-0.004 4.23zM22.825 10.814c-1.243 1.074-3.524 2.567-6.624 2.567-2.436 0-4.934-0.891-7.429-2.633-0.412 1.162-0.645 2.588-0.71 4.322h15.428c-0.040-1.681-0.261-3.094-0.666-4.257z"></path>
            <path fill="#fff" style="fill: var(--color2, #fff)" d="M25.334 21.193c0.001-0.149 0.003-0.306 0.005-0.461 1.473-0.111 2.637-1.188 2.637-2.511v-0.619c0-1.303-1.129-2.367-2.57-2.505-0.076-3.671-0.941-6.327-2.648-8.074-1.604-1.642-3.957-2.475-6.994-2.475-2.989 0-5.308 0.807-6.892 2.4-1.743 1.751-2.613 4.393-2.729 8.23-1.203 0.304-2.091 1.269-2.091 2.423v0.619c0 1.153 0.887 2.118 2.086 2.423-0.018 3.107 0.053 5.205 1.5 6.663 0.645 0.65 1.505 1.109 2.711 1.413l-0.002 2.248v0.047s0.652 0.232 0.948 0.321c0.268 0.080 0.973 0.275 0.973 0.275v-0.051l0-2.513c0.988 0.105 2.139 0.154 3.495 0.154 1.348 0 2.501-0.041 3.495-0.128v2.68s0.744-0.171 0.988-0.238c0.236-0.064 0.932-0.286 0.932-0.286v-2.427c3.863-0.811 4.111-2.986 4.155-7.61zM10.234 8.304c1.228-1.234 3.038-1.834 5.531-1.834 2.536 0 4.374 0.62 5.62 1.896 0.197 0.202 0.379 0.424 0.548 0.662-0.865 0.828-2.906 2.434-5.733 2.434-2.107 0-4.313-0.822-6.559-2.441 0.183-0.257 0.377-0.5 0.592-0.716zM8.772 10.749c2.495 1.741 4.993 2.633 7.429 2.633 3.101 0 5.381-1.493 6.624-2.567 0.404 1.162 0.625 2.575 0.666 4.257h-15.428c0.064-1.734 0.298-3.16 0.71-4.322zM6.933 18.834c-0.549 0-0.96-0.323-0.96-0.612v-0.619c0-0.289 0.411-0.612 0.96-0.612h18.164c0.549 0 0.96 0.323 0.96 0.612v0.619c0 0.289-0.411 0.612-0.96 0.612l-5.687 0.046 0.016 4.183c-0.243 0.415-0.669 0.456-0.804 0.459-0.131 0.002-0.554-0.024-0.812-0.419l0.004-4.23-10.881-0.039zM15.765 27.282c-3.817 0-5.84-0.397-6.762-1.326-0.895-0.902-0.957-2.633-0.943-5.197l7.833 0.028-0.003 2.755 0.082 0.186c0.47 1.062 1.474 1.715 2.63 1.715 0.017 0 0.036-0.001 0.053-0.001 1.178-0.021 2.183-0.713 2.623-1.806l0.070-0.174-0.010-2.677 2.082-0.017c-0.001 0.136-0.003 0.276-0.004 0.408-0.053 5.528-0.058 6.106-7.649 6.106z"></path>
        </symbol>
        <symbol id="menu-icon" viewBox="0 0 32 32">
            <path d="M6.4 11.733v-2.133h19.2v2.133h-19.2zM6.4 17.067h19.2v-2.133h-19.2v2.133zM6.4 22.4h19.2v-2.133h-19.2v2.133z"></path>
        </symbol>
        <symbol id="close-menu" viewBox="0 0 32 32">
            <path d="M23.733 10.304l-1.504-1.504-5.963 5.963-5.963-5.963-1.504 1.504 5.963 5.963-5.963 5.963 1.504 1.504 5.963-5.963 5.963 5.963 1.504-1.504-5.963-5.963 5.963-5.963z"></path>
        </symbol>
        <symbol id="icon-arrow-right" viewBox="0 0 32 32">
            <path d="M19.414 27.414l10-10c0.781-0.781 0.781-2.047 0-2.828l-10-10c-0.781-0.781-2.047-0.781-2.828 0s-0.781 2.047 0 2.828l6.586 6.586h-19.172c-1.105 0-2 0.895-2 2s0.895 2 2 2h19.172l-6.586 6.586c-0.39 0.39-0.586 0.902-0.586 1.414s0.195 1.024 0.586 1.414c0.781 0.781 2.047 0.781 2.828 0z"></path>
        </symbol>
        <symbol id="icon-facebook" viewBox="0 0 16 32">
            <path d="M14.266 15.97h-4.176v15.39h-6.327v-15.39h-3.009v-5.409h3.009v-3.5c0-2.503 1.182-6.422 6.384-6.422l4.687 0.020v5.25h-3.401c-0.558 0-1.342 0.28-1.342 1.474v3.183h4.729l-0.553 5.403z"></path>
        </symbol>
        <symbol id="icon-github" viewBox="0 0 32 32">
            <path d="M16 0.941c-8.271 0-15.059 6.788-15.059 15.059 0 7.058 4.953 13.47 11.529 15.059v-4.982c-0.652 0.143-1.251 0.147-1.915-0.049-0.89-0.263-1.613-0.856-2.15-1.76-0.342-0.577-0.949-1.203-1.581-1.157l-0.155-1.758c1.368-0.117 2.551 0.833 3.254 2.013 0.312 0.525 0.671 0.832 1.132 0.969 0.446 0.131 0.924 0.068 1.481-0.129 0.14-1.116 0.651-1.534 1.037-2.122v-0.001c-3.922-0.585-5.486-2.666-6.106-4.308-0.822-2.181-0.381-4.905 1.073-6.627 0.028-0.034 0.079-0.121 0.060-0.183-0.667-2.014 0.146-3.679 0.176-3.856 0.769 0.228 0.894-0.229 3.342 1.258l0.423 0.254c0.177 0.105 0.121 0.045 0.298 0.032 1.022-0.278 2.099-0.431 3.16-0.445 1.069 0.014 2.14 0.167 3.204 0.456l0.137 0.014c-0.012-0.002 0.037-0.009 0.12-0.058 3.057-1.852 2.947-1.247 3.767-1.513 0.030 0.177 0.831 1.87 0.172 3.858-0.089 0.274 2.65 2.782 1.132 6.809-0.62 1.643-2.184 3.724-6.106 4.309v0.001c0.503 0.766 1.107 1.174 1.104 2.755v6.219c6.577-1.589 11.529-8.001 11.529-15.059 0-8.271-6.787-15.059-15.059-15.059v0z"></path>
        </symbol>
        <symbol id="icon-telegram" viewBox="0 0 40 32">
            <path d="M16.205 20.751l-0.635 8.339c0.909 0 1.302-0.364 1.774-0.802l4.261-3.801 8.829 6.035c1.619 0.842 2.76 0.399 3.197-1.39l5.797-25.346c0.514-2.234-0.866-3.108-2.443-2.56l-34.065 12.172c-2.325 0.842-2.29 2.052-0.395 2.6l8.709 2.528 20.229-11.814c0.952-0.588 1.818-0.263 1.106 0.326l-16.364 13.713z"></path>
        </symbol>
    </defs>
</svg>